<?xml version="1.0" encoding="UTF-8" standalone="no"?>
<svg width="190px" height="285px" viewBox="0 0 190 285" version="1.1" xmlns="http://www.w3.org/2000/svg" xmlns:xlink="http://www.w3.org/1999/xlink" xmlns:sketch="http://www.bohemiancoding.com/sketch/ns">
    <!-- Generator: Sketch 3.0.1 (7597) - http://www.bohemiancoding.com/sketch -->
    <title>poster-placeholder</title>
    <description>Created with Sketch.</description>
    <defs></defs>
    <g id="Page-1" stroke="none" stroke-width="1" fill="none" fill-rule="evenodd" sketch:type="MSPage">
        <g id="poster-placeholder" sketch:type="MSLayerGroup">
            <rect id="Rectangle-21" fill="#576472" sketch:type="MSShapeGroup" x="0" y="0" width="190" height="285"></rect>
            <path d="M94.5,61 C60.5342405,61 33,88.5342405 33,122.5 C33,156.46576 60.5342405,184 94.5,184 C128.46576,184 156,156.46576 156,122.5 C156,88.5342405 128.46576,61 94.5,61 L94.5,61 L94.5,61 Z M43,112.999297 C43,105.820098 48.8215039,100 56.0007027,100 C63.1799016,100 69,105.820098 69,112.999297 C69,120.178496 63.1799016,126 56.0007027,126 C48.8215039,126 43,120.178496 43,112.999297 L43,112.999297 L43,112.999297 Z M70.0007027,168 C62.8200984,168 57,162.180993 57,155.001406 C57,147.821819 62.8200984,142 70.0007027,142 C77.1784961,142 83,147.821819 83,155.001406 C83,162.180993 77.1799016,168 70.0007027,168 L70.0007027,168 L70.0007027,168 Z M94.5,128 C90.9090026,128 88,125.089594 88,121.5 C88,117.910406 90.9090026,115 94.5,115 C98.0909974,115 101,117.910406 101,121.5 C101,125.089594 98.0909974,128 94.5,128 L94.5,128 L94.5,128 Z M95.0007027,95 C87.8215039,95 82,89.1799016 82,82.0007027 C82,74.8200984 87.8215039,69 95.0007027,69 C102.179902,69 108,74.8200984 108,82.0007027 C108,89.1799016 102.179902,95 95.0007027,95 L95.0007027,95 L95.0007027,95 Z M119.002108,168 C111.821504,168 106,162.180993 106,155.001406 C106,147.821819 111.821504,142 119.002108,142 C126.179902,142 132,147.821819 132,155.001406 C132,162.180993 126.179902,168 119.002108,168 L119.002108,168 L119.002108,168 Z M132.002108,126 C124.822909,126 119,120.179902 119,112.999297 C119,105.818693 124.822909,100 132.002108,100 C139.181307,100 145,105.820098 145,112.999297 C145,120.178496 139.181307,126 132.002108,126 L132.002108,126 L132.002108,126 Z" id="Shape" fill="#B3B9BF" sketch:type="MSShapeGroup" />
            <path d="M29.74,262 L32.1,262 L31.7,249.5 L28.36,249.5 L25.14,259.34 L21.92,249.5 L18.54,249.5 L18.12,262 L20.42,262 L20.54,251.98 L23.82,261.82 L26.38,261.82 L29.64,251.98 L29.74,262 Z M47.4555556,255.7 C47.4555556,251.6 44.7355556,249.2 41.0555556,249.2 C37.3555556,249.2 34.6155556,251.92 34.6155556,255.78 C34.6155556,259.88 37.3355556,262.3 41.0355556,262.3 C44.7355556,262.3 47.4555556,259.56 47.4555556,255.7 Z M45.0155556,255.78 C45.0155556,258.44 43.4555556,260.26 41.0755556,260.26 C38.6355556,260.26 37.0755556,258.44 37.0755556,255.7 C37.0755556,253.04 38.6155556,251.24 40.9955556,251.24 C43.4355556,251.24 45.0155556,253.04 45.0155556,255.78 Z M60.5511112,249.5 L58.0311112,249.5 L54.6111112,259.54 L51.1911112,249.5 L48.6711112,249.5 L53.1111112,262 L56.0711112,262 L60.5511112,249.5 Z M65.0666667,262 L65.0666667,249.5 L62.6466667,249.5 L62.6466667,262 L65.0666667,262 Z M77.0622223,262 L77.0622223,259.94 L70.9422223,259.94 L70.9422223,256.76 L75.9622223,256.76 L75.9622223,254.7 L70.9422223,254.7 L70.9422223,251.56 L77.0622223,251.56 L77.0622223,249.5 L68.5422223,249.5 L68.5422223,262 L77.0622223,262 Z M89.1777779,253.68 C89.1777779,251.24 87.4777779,249.5 84.0177779,249.5 L79.9777779,249.5 L79.9777779,262 L82.4177779,262 L82.4177779,258.12 L83.8377779,258.1 C87.1977779,258.08 89.1777779,256.56 89.1777779,253.68 Z M86.7377779,253.76 C86.7377779,255.22 85.7977779,256.02 83.9377779,256.06 L82.3777779,256.1 L82.3777779,251.54 L83.8577779,251.54 C85.7777779,251.54 86.7377779,252.3 86.7377779,253.76 Z M99.9333335,262 L99.9333335,259.86 L94.2933335,259.86 L94.2933335,249.5 L91.8533335,249.5 L91.8533335,262 L99.9333335,262 Z M108.768889,249.5 L105.808889,249.5 L101.248889,262 L103.708889,262 L104.728889,259.04 L109.768889,259.04 L110.808889,262 L113.268889,262 L108.768889,249.5 Z M109.148889,257.02 L105.368889,257.02 L107.268889,251.6 L109.148889,257.02 Z M124.244445,249.5 L121.624445,249.5 L118.724445,254.9 L115.764445,249.5 L113.124445,249.5 L117.484445,257.14 L117.484445,262 L119.904445,262 L119.904445,257.16 L124.244445,249.5 Z M134.96,262 L134.96,259.94 L128.84,259.94 L128.84,256.76 L133.86,256.76 L133.86,254.7 L128.84,254.7 L128.84,251.56 L134.96,251.56 L134.96,249.5 L126.44,249.5 L126.44,262 L134.96,262 Z M140.315556,257.54 L142.115556,257.42 L144.895556,262 L147.675556,262 L144.395556,256.9 C146.095556,256.32 147.095556,255.08 147.095556,253.3 C147.095556,251 145.415556,249.5 142.255556,249.5 C142.295556,249.5 137.875556,249.5 137.875556,249.5 L137.875556,262 L140.315556,262 L140.315556,257.54 Z M140.295556,255.62 L140.295556,251.54 L141.875556,251.54 C143.615556,251.54 144.595556,252.16 144.595556,253.46 C144.595556,254.82 143.615556,255.5 142.115556,255.58 L140.295556,255.62 Z M152.491111,260.74 C152.491111,259.86 151.851111,259.2 150.931111,259.2 C149.991111,259.2 149.331111,259.86 149.331111,260.74 C149.331111,261.62 149.991111,262.3 150.931111,262.3 C151.851111,262.3 152.491111,261.62 152.491111,260.74 L152.491111,260.74 Z M157.846667,262 L157.846667,249.5 L155.426667,249.5 L155.426667,262 L157.846667,262 Z M171.082223,251.64 L171.082223,249.5 L160.302223,249.5 L160.302223,251.64 L164.482223,251.64 L164.482223,262 L166.902223,262 L166.902223,251.64 L171.082223,251.64 Z" id="MOVIEPLAYER.IT" fill="#B3B9BF" sketch:type="MSShapeGroup" />
        </g>
    </g>
</svg>